<?xml version="1.0" encoding="UTF-8"?>
<svg width="333px" height="92px" viewBox="0 0 333 92" version="1.1" xmlns="http://www.w3.org/2000/svg" xmlns:xlink="http://www.w3.org/1999/xlink">
    <!-- Generator: Sketch 48.2 (47327) - http://www.bohemiancoding.com/sketch -->
    <title>Artboard</title>
    <desc>Created with Sketch.</desc>
    <defs></defs>
    <g id="Page-1" stroke="none" stroke-width="1" fill="none" fill-rule="evenodd">
        <g id="Artboard">
            <g id="Group" transform="translate(-0.000000, 0.000000)">
                <path d="M49.916057,28.7059462 C49.916057,24.0639959 48.6945946,20.7541332 46.2516331,18.7762587 C43.8086716,16.7983842 40.3865579,15.8094618 35.9851893,15.8094618 L18.6018893,15.8094618 L18.6018893,42.0868056 L35.9851893,42.0868056 C40.3865579,42.0868056 43.8086716,41.0171548 46.2516331,38.8778212 C48.6945946,36.7384876 49.916057,33.3478965 49.916057,28.7059462 Z M68.3895989,28.5848524 C68.3895989,39.1200614 65.72459,46.5672525 60.3944922,50.9266493 C55.0643945,55.2860461 47.4529675,57.4657118 37.5599831,57.4657118 L18.6018893,57.4657118 L18.6018893,89.5555556 L0.0677783876,89.5555556 L0.0677783876,0.309461806 L38.9530698,0.309461806 C47.9173251,0.309461806 55.0643945,2.61022005 60.3944922,7.21180556 C65.72459,11.8133911 68.3895989,18.9376688 68.3895989,28.5848524 Z M110.606185,77.3856337 C115.653626,77.3856337 119.530002,75.5894277 122.235431,71.9969618 C124.940859,68.4044959 126.293553,63.2984272 126.293553,56.6786024 C126.293553,50.0587777 124.940859,44.9628 122.235431,41.3905165 C119.530002,37.818233 115.653626,36.0321181 110.606185,36.0321181 C105.558744,36.0321181 101.672272,37.818233 98.9466542,41.3905165 C96.221036,44.9628 94.8582474,50.0587777 94.8582474,56.6786024 C94.8582474,63.2984272 96.221036,68.4044959 98.9466542,71.9969618 C101.672272,75.5894277 105.558744,77.3856337 110.606185,77.3856337 Z M144.403681,56.6786024 C144.403681,66.3661509 141.617535,74.6508987 136.04516,81.5330946 C130.472786,88.4152905 122.013401,91.8563368 110.666754,91.8563368 C99.3201062,91.8563368 90.8607219,88.4152905 85.288347,81.5330946 C79.7159721,74.6508987 76.9298264,66.3661509 76.9298264,56.6786024 C76.9298264,47.1525131 79.7159721,38.8980384 85.288347,31.9149306 C90.8607219,24.9318227 99.3201062,21.4403212 110.666754,21.4403212 C122.013401,21.4403212 130.472786,24.9318227 136.04516,31.9149306 C141.617535,38.8980384 144.403681,47.1525131 144.403681,56.6786024 Z M251.731931,36.0321181 C247.734358,36.0321181 244.635275,37.2834076 242.434591,39.7860243 C240.233907,42.288641 238.850929,45.6792321 238.285615,49.9578993 L265.117678,49.9578993 C264.835021,45.3966786 263.452043,41.9354502 260.968702,39.5741102 C258.485361,37.2127703 255.406468,36.0321181 251.731931,36.0321181 Z M251.731931,21.8036024 C257.223547,21.8036024 262.169965,22.832889 266.571333,24.8914931 C270.972702,26.9500971 274.606805,30.1994136 277.473752,34.6395399 C280.058041,38.5549241 281.733767,43.0958943 282.500978,48.2625868 C282.945153,51.2899457 283.126858,55.6492771 283.046099,61.3407118 L237.861632,61.3407118 C238.103909,67.9605366 240.183424,72.6024172 244.100238,75.2664931 C246.48263,76.9214492 249.349534,77.7489149 252.701035,77.7489149 C256.254433,77.7489149 259.141526,76.7398104 261.3624,74.7215712 C262.573786,73.631722 263.643828,72.1180652 264.572557,70.1805556 L282.198133,70.1805556 C281.753958,74.0959397 279.714822,78.0718114 276.080665,82.1082899 C270.427531,88.5262908 262.513262,91.7352431 252.337621,91.7352431 C243.938679,91.7352431 236.529147,89.030843 230.108802,83.6219618 C223.688457,78.2130806 220.478332,69.4136894 220.478332,57.2235243 C220.478332,45.8002901 223.37552,37.0412631 229.169982,30.9461806 C234.964445,24.851098 242.485019,21.8036024 251.731931,21.8036024 Z M330.532187,21.9852431 C330.855223,21.9852431 331.127781,21.9953341 331.349868,22.0155165 C331.571955,22.0356989 332.066597,22.065972 332.833808,22.1063368 L332.833808,39.7860243 C331.743561,39.66493 330.774467,39.5842016 329.926497,39.5438368 C329.078527,39.503472 328.392085,39.4832899 327.867151,39.4832899 C320.921872,39.4832899 316.258107,41.743684 313.875714,46.2645399 C312.54319,48.8075214 311.876938,52.7228468 311.876938,58.0106337 L311.876938,89.5555556 L294.493638,89.5555556 L294.493638,23.5594618 L310.968403,23.5594618 L310.968403,35.0633681 C313.633452,30.6636065 315.95524,27.6564751 317.933837,26.0418837 C321.164199,23.3374431 325.363607,21.9852431 330.532187,21.9852431 Z" id="Poller" fill="#3F51B5"></path>
                <polygon id="Path" fill="#F54949" points="174.385331 89.5555556 157.123169 89.5555556 157.123169 15.8094618 174.385331 15.8094618"></polygon>
                <polygon id="Path" fill="#93DC53" points="208.849086 89.5555556 191.586924 89.5555556 191.586924 0.309461806 208.849086 0.309461806"></polygon>
            </g>
        </g>
    </g>
</svg>